<?xml version="1.0" encoding="UTF-8"?>
<svg width="400" height="200" viewBox="0 0 400 200" version="1.1" xmlns="http://www.w3.org/2000/svg">
"<style>
.axis {
font-family="Arial, Helvetica, sans-serif">;
font-size: 12pt;
}
</style>
<line x1="16" y1="0" x2="400" y2="0" stroke="black" />
<text text-anchor="end" class="axis" x="12" y="9">y</text>
<line x1="16" y1="20.78" x2="400" y2="20.78" stroke="black" />
<text text-anchor="end" class="axis" x="12" y="24.78">8</text>
<line x1="16" y1="41.56" x2="400" y2="41.56" stroke="black" />
<text text-anchor="end" class="axis" x="12" y="45.56">7</text>
<line x1="16" y1="62.33" x2="400" y2="62.33" stroke="black" />
<text text-anchor="end" class="axis" x="12" y="66.33">6</text>
<line x1="16" y1="83.11" x2="400" y2="83.11" stroke="black" />
<text text-anchor="end" class="axis" x="12" y="87.11">5</text>
<line x1="16" y1="103.89" x2="400" y2="103.89" stroke="black" />
<text text-anchor="end" class="axis" x="12" y="107.89">4</text>
<line x1="16" y1="124.67" x2="400" y2="124.67" stroke="black" />
<text text-anchor="end" class="axis" x="12" y="128.67">3</text>
<line x1="16" y1="145.44" x2="400" y2="145.44" stroke="black" />
<text text-anchor="end" class="axis" x="12" y="149.44">2</text>
<line x1="16" y1="166.22" x2="400" y2="166.22" stroke="black" />
<text text-anchor="end" class="axis" x="12" y="170.22">1</text>
<line x1="16" y1="187" x2="400" y2="187" stroke="black" />
<text text-anchor="end" class="axis" x="12" y="191">0</text>
<line x1="16" y1="0" x2="16" y2="187" stroke="black" />
<text text-anchor="middle" class="axis" x="16" y="200">0</text>
<line x1="70.86" y1="0" x2="70.86" y2="187" stroke="black" />
<text text-anchor="middle" class="axis" x="70.86" y="200">1</text>
<line x1="125.71" y1="0" x2="125.71" y2="187" stroke="black" />
<text text-anchor="middle" class="axis" x="125.71" y="200">2</text>
<line x1="180.57" y1="0" x2="180.57" y2="187" stroke="black" />
<text text-anchor="middle" class="axis" x="180.57" y="200">3</text>
<line x1="235.43" y1="0" x2="235.43" y2="187" stroke="black" />
<text text-anchor="middle" class="axis" x="235.43" y="200">4</text>
<line x1="290.29" y1="0" x2="290.29" y2="187" stroke="black" />
<text text-anchor="middle" class="axis" x="290.29" y="200">5</text>
<line x1="345.14" y1="0" x2="345.14" y2="187" stroke="black" />
<text text-anchor="middle" class="axis" x="345.14" y="200">6</text>
<line x1="400" y1="0" x2="400" y2="187" stroke="black" />
<text text-anchor="end" class="axis" x="400" y="200">x</text>

<path d="M 70.85714285714286 0 L 125.71428571428571 103.88888888888889 L 180.57142857142856 166.22222222222223 L 235.42857142857142 187 L 290.2857142857143 166.22222222222223 L 345.1428571428571 103.88888888888889 L 400 0" fill="none" stroke="black" stroke-width="3"/>
</svg>