<?xml version="1.0" encoding="UTF-8"?>
<svg width="400" height="200" viewBox="0 0 400 200" version="1.1" xmlns="http://www.w3.org/2000/svg">
"<style>
.axis {
font-family="Arial, Helvetica, sans-serif">;
font-size: 12pt;
}
</style>
<line x1="16" y1="0" x2="400" y2="0" stroke="black" />
<text text-anchor="end" class="axis" x="12" y="9">y</text>
<line x1="16" y1="20.78" x2="400" y2="20.78" stroke="black" />
<text text-anchor="end" class="axis" x="12" y="24.78">9</text>
<line x1="16" y1="41.56" x2="400" y2="41.56" stroke="black" />
<text text-anchor="end" class="axis" x="12" y="45.56">8</text>
<line x1="16" y1="62.33" x2="400" y2="62.33" stroke="black" />
<text text-anchor="end" class="axis" x="12" y="66.33">7</text>
<line x1="16" y1="83.11" x2="400" y2="83.11" stroke="black" />
<text text-anchor="end" class="axis" x="12" y="87.11">6</text>
<line x1="16" y1="103.89" x2="400" y2="103.89" stroke="black" />
<text text-anchor="end" class="axis" x="12" y="107.89">5</text>
<line x1="16" y1="124.67" x2="400" y2="124.67" stroke="black" />
<text text-anchor="end" class="axis" x="12" y="128.67">4</text>
<line x1="16" y1="145.44" x2="400" y2="145.44" stroke="black" />
<text text-anchor="end" class="axis" x="12" y="149.44">3</text>
<line x1="16" y1="166.22" x2="400" y2="166.22" stroke="black" />
<text text-anchor="end" class="axis" x="12" y="170.22">2</text>
<line x1="16" y1="187" x2="400" y2="187" stroke="black" />
<text text-anchor="end" class="axis" x="12" y="191">1</text>
<line x1="16" y1="0" x2="16" y2="187" stroke="black" />
<text text-anchor="middle" class="axis" x="16" y="200">1</text>
<line x1="48" y1="0" x2="48" y2="187" stroke="black" />
<text text-anchor="middle" class="axis" x="48" y="200">1.5</text>
<line x1="80" y1="0" x2="80" y2="187" stroke="black" />
<text text-anchor="middle" class="axis" x="80" y="200">2</text>
<line x1="112" y1="0" x2="112" y2="187" stroke="black" />
<text text-anchor="middle" class="axis" x="112" y="200">2.5</text>
<line x1="144" y1="0" x2="144" y2="187" stroke="black" />
<text text-anchor="middle" class="axis" x="144" y="200">3</text>
<line x1="176" y1="0" x2="176" y2="187" stroke="black" />
<text text-anchor="middle" class="axis" x="176" y="200">3.5</text>
<line x1="208" y1="0" x2="208" y2="187" stroke="black" />
<text text-anchor="middle" class="axis" x="208" y="200">4</text>
<line x1="240" y1="0" x2="240" y2="187" stroke="black" />
<text text-anchor="middle" class="axis" x="240" y="200">4.5</text>
<line x1="272" y1="0" x2="272" y2="187" stroke="black" />
<text text-anchor="middle" class="axis" x="272" y="200">5</text>
<line x1="304" y1="0" x2="304" y2="187" stroke="black" />
<text text-anchor="middle" class="axis" x="304" y="200">5.5</text>
<line x1="336" y1="0" x2="336" y2="187" stroke="black" />
<text text-anchor="middle" class="axis" x="336" y="200">6</text>
<line x1="368" y1="0" x2="368" y2="187" stroke="black" />
<text text-anchor="middle" class="axis" x="368" y="200">6.5</text>
<line x1="400" y1="0" x2="400" y2="187" stroke="black" />
<text text-anchor="end" class="axis" x="400" y="200">x</text>

<path d="M 16 -41.55555555555557 L 16 145.44444444444446 L 400 145.44444444444446 L 400 -41.55555555555557" fill="none" stroke="black" stroke-width="3"/>
<circle cx="208.00" cy="145.44" r="5"/>

<path d="M 16.00 -41.56 C 16.00,-41.56 65.191,43.10 80.00,62.33 C 96.19,83.35 121.953,110.35 144.00,124.67 C 160.35,135.28 188.800,145.44 208.00,145.44 C 227.20,145.44 255.647,135.28 272.00,124.67 C 294.05,110.35 319.813,83.35 336.00,62.33 C 336.00,62.33 372.142,8.47 400.00,-41.56 " fill="none" stroke="black" stroke-width="3" stroke-linecap="round"/>

</svg>