<?xml version="1.0" encoding="UTF-8"?>
<svg width="400" height="200" viewBox="0 0 400 200" version="1.1" xmlns="http://www.w3.org/2000/svg">
"<style>
.axis {
font-family="Arial, sans-serif";
font-size: 12pt;
}
</style>
<line x1="16" y1="5" x2="395" y2="5" stroke="black" />
<text text-anchor="end" class="axis" x="12" y="14">y</text>
<line x1="16" y1="25.22" x2="395" y2="25.22" stroke="black" />
<text text-anchor="end" class="axis" x="12" y="29.22">8</text>
<line x1="16" y1="45.44" x2="395" y2="45.44" stroke="black" />
<text text-anchor="end" class="axis" x="12" y="49.44">7</text>
<line x1="16" y1="65.67" x2="395" y2="65.67" stroke="black" />
<text text-anchor="end" class="axis" x="12" y="69.67">6</text>
<line x1="16" y1="85.89" x2="395" y2="85.89" stroke="black" />
<text text-anchor="end" class="axis" x="12" y="89.89">5</text>
<line x1="16" y1="106.11" x2="395" y2="106.11" stroke="black" />
<text text-anchor="end" class="axis" x="12" y="110.11">4</text>
<line x1="16" y1="126.33" x2="395" y2="126.33" stroke="black" />
<text text-anchor="end" class="axis" x="12" y="130.33">3</text>
<line x1="16" y1="146.56" x2="395" y2="146.56" stroke="black" />
<text text-anchor="end" class="axis" x="12" y="150.56">2</text>
<line x1="16" y1="166.78" x2="395" y2="166.78" stroke="black" />
<text text-anchor="end" class="axis" x="12" y="170.78">1</text>
<line x1="16" y1="187" x2="395" y2="187" stroke="black" />
<text text-anchor="end" class="axis" x="12" y="191">0</text>
<line x1="16" y1="5" x2="16" y2="187" stroke="black" />
<text text-anchor="middle" class="axis" x="16" y="200">0</text>
<line x1="70.14" y1="5" x2="70.14" y2="187" stroke="black" />
<text text-anchor="middle" class="axis" x="70.14" y="200">1</text>
<line x1="124.29" y1="5" x2="124.29" y2="187" stroke="black" />
<text text-anchor="middle" class="axis" x="124.29" y="200">2</text>
<line x1="178.43" y1="5" x2="178.43" y2="187" stroke="black" />
<text text-anchor="middle" class="axis" x="178.43" y="200">3</text>
<line x1="232.57" y1="5" x2="232.57" y2="187" stroke="black" />
<text text-anchor="middle" class="axis" x="232.57" y="200">4</text>
<line x1="286.71" y1="5" x2="286.71" y2="187" stroke="black" />
<text text-anchor="middle" class="axis" x="286.71" y="200">5</text>
<line x1="340.86" y1="5" x2="340.86" y2="187" stroke="black" />
<text text-anchor="middle" class="axis" x="340.86" y="200">6</text>
<line x1="395" y1="5" x2="395" y2="187" stroke="black" />
<text text-anchor="end" class="axis" x="395" y="200">x</text>

<circle cx="70.14" cy="5.00" r="5"/>
<circle cx="124.29" cy="106.11" r="5"/>
<circle cx="178.43" cy="166.78" r="5"/>
<circle cx="232.57" cy="187.00" r="5"/>
<circle cx="286.71" cy="166.78" r="5"/>
<circle cx="340.86" cy="106.11" r="5"/>
<circle cx="395.00" cy="5.00" r="5"/>

</svg>