<?xml version="1.0" encoding="UTF-8"?>
<svg width="400" height="200" viewBox="0 0 400 200" version="1.1" xmlns="http://www.w3.org/2000/svg">
"<style>
.axis {
    font-family: "Arial, Heleveca, sans-serif";
    font-size: 12;
}
</style>
<line x1="16" y1="5" x2="395" y2="5" stroke="black" />
<text text-anchor="end" class="axis" x="12" y="14">y</text>
<line x1="16" y1="25.22" x2="395" y2="25.22" stroke="black" />
<text text-anchor="end" class="axis" x="12" y="29.22">8</text>
<line x1="16" y1="45.44" x2="395" y2="45.44" stroke="black" />
<text text-anchor="end" class="axis" x="12" y="49.44">7</text>
<line x1="16" y1="65.67" x2="395" y2="65.67" stroke="black" />
<text text-anchor="end" class="axis" x="12" y="69.67">6</text>
<line x1="16" y1="85.89" x2="395" y2="85.89" stroke="black" />
<text text-anchor="end" class="axis" x="12" y="89.89">5</text>
<line x1="16" y1="106.11" x2="395" y2="106.11" stroke="black" />
<text text-anchor="end" class="axis" x="12" y="110.11">4</text>
<line x1="16" y1="126.33" x2="395" y2="126.33" stroke="black" />
<text text-anchor="end" class="axis" x="12" y="130.33">3</text>
<line x1="16" y1="146.56" x2="395" y2="146.56" stroke="black" />
<text text-anchor="end" class="axis" x="12" y="150.56">2</text>
<line x1="16" y1="166.78" x2="395" y2="166.78" stroke="black" />
<text text-anchor="end" class="axis" x="12" y="170.78">1</text>
<line x1="16" y1="187" x2="395" y2="187" stroke="black" />
<text text-anchor="end" class="axis" x="12" y="191">0</text>
<line x1="16" y1="5" x2="16" y2="187" stroke="black" />
<text text-anchor="middle" class="axis" x="16" y="200">-3</text>
<line x1="47.58" y1="5" x2="47.58" y2="187" stroke="black" />
<text text-anchor="middle" class="axis" x="47.58" y="200">-2.5</text>
<line x1="79.17" y1="5" x2="79.17" y2="187" stroke="black" />
<text text-anchor="middle" class="axis" x="79.17" y="200">-2</text>
<line x1="110.75" y1="5" x2="110.75" y2="187" stroke="black" />
<text text-anchor="middle" class="axis" x="110.75" y="200">-1.5</text>
<line x1="142.33" y1="5" x2="142.33" y2="187" stroke="black" />
<text text-anchor="middle" class="axis" x="142.33" y="200">-1</text>
<line x1="173.92" y1="5" x2="173.92" y2="187" stroke="black" />
<text text-anchor="middle" class="axis" x="173.92" y="200">-0.5</text>
<line x1="205.5" y1="5" x2="205.5" y2="187" stroke="black" />
<text text-anchor="middle" class="axis" x="205.5" y="200">0</text>
<line x1="237.08" y1="5" x2="237.08" y2="187" stroke="black" />
<text text-anchor="middle" class="axis" x="237.08" y="200">0.5</text>
<line x1="268.67" y1="5" x2="268.67" y2="187" stroke="black" />
<text text-anchor="middle" class="axis" x="268.67" y="200">1</text>
<line x1="300.25" y1="5" x2="300.25" y2="187" stroke="black" />
<text text-anchor="middle" class="axis" x="300.25" y="200">1.5</text>
<line x1="331.83" y1="5" x2="331.83" y2="187" stroke="black" />
<text text-anchor="middle" class="axis" x="331.83" y="200">2</text>
<line x1="363.42" y1="5" x2="363.42" y2="187" stroke="black" />
<text text-anchor="middle" class="axis" x="363.42" y="200">2.5</text>
<line x1="395" y1="5" x2="395" y2="187" stroke="black" />
<text text-anchor="end" class="axis" x="395" y="200">x</text>

<circle cx="16.00" cy="5.00" r="5"/>
<circle cx="79.17" cy="106.11" r="5"/>
<circle cx="142.33" cy="166.78" r="5"/>
<circle cx="205.50" cy="187.00" r="5"/>
<circle cx="268.67" cy="166.78" r="5"/>
<circle cx="331.83" cy="106.11" r="5"/>
<circle cx="395.00" cy="5.00" r="5"/>

</svg>