<?xml version="1.0" encoding="UTF-8"?>
<svg width="400" height="200" viewBox="0 0 400 200" version="1.1" xmlns="http://www.w3.org/2000/svg">
"<style>
.axis {
font-family="Arial, sans-serif">;
font-size: 12pt;
}
</style>
<line x1="16" y1="0" x2="400" y2="0" stroke="black" />
<text text-anchor="end" class="axis" x="12" y="9">y</text>
<line x1="16" y1="20.78" x2="400" y2="20.78" stroke="black" />
<text text-anchor="end" class="axis" x="12" y="24.78">8</text>
<line x1="16" y1="41.56" x2="400" y2="41.56" stroke="black" />
<text text-anchor="end" class="axis" x="12" y="45.56">7</text>
<line x1="16" y1="62.33" x2="400" y2="62.33" stroke="black" />
<text text-anchor="end" class="axis" x="12" y="66.33">6</text>
<line x1="16" y1="83.11" x2="400" y2="83.11" stroke="black" />
<text text-anchor="end" class="axis" x="12" y="87.11">5</text>
<line x1="16" y1="103.89" x2="400" y2="103.89" stroke="black" />
<text text-anchor="end" class="axis" x="12" y="107.89">4</text>
<line x1="16" y1="124.67" x2="400" y2="124.67" stroke="black" />
<text text-anchor="end" class="axis" x="12" y="128.67">3</text>
<line x1="16" y1="145.44" x2="400" y2="145.44" stroke="black" />
<text text-anchor="end" class="axis" x="12" y="149.44">2</text>
<line x1="16" y1="166.22" x2="400" y2="166.22" stroke="black" />
<text text-anchor="end" class="axis" x="12" y="170.22">1</text>
<line x1="16" y1="187" x2="400" y2="187" stroke="black" />
<text text-anchor="end" class="axis" x="12" y="191">0</text>
<line x1="16" y1="0" x2="16" y2="187" stroke="black" />
<text text-anchor="middle" class="axis" x="16" y="200">-3</text>
<line x1="48" y1="0" x2="48" y2="187" stroke="black" />
<text text-anchor="middle" class="axis" x="48" y="200">-2.5</text>
<line x1="80" y1="0" x2="80" y2="187" stroke="black" />
<text text-anchor="middle" class="axis" x="80" y="200">-2</text>
<line x1="112" y1="0" x2="112" y2="187" stroke="black" />
<text text-anchor="middle" class="axis" x="112" y="200">-1.5</text>
<line x1="144" y1="0" x2="144" y2="187" stroke="black" />
<text text-anchor="middle" class="axis" x="144" y="200">-1</text>
<line x1="176" y1="0" x2="176" y2="187" stroke="black" />
<text text-anchor="middle" class="axis" x="176" y="200">-0.5</text>
<line x1="208" y1="0" x2="208" y2="187" stroke="black" />
<text text-anchor="middle" class="axis" x="208" y="200">0</text>
<line x1="240" y1="0" x2="240" y2="187" stroke="black" />
<text text-anchor="middle" class="axis" x="240" y="200">0.5</text>
<line x1="272" y1="0" x2="272" y2="187" stroke="black" />
<text text-anchor="middle" class="axis" x="272" y="200">1</text>
<line x1="304" y1="0" x2="304" y2="187" stroke="black" />
<text text-anchor="middle" class="axis" x="304" y="200">1.5</text>
<line x1="336" y1="0" x2="336" y2="187" stroke="black" />
<text text-anchor="middle" class="axis" x="336" y="200">2</text>
<line x1="368" y1="0" x2="368" y2="187" stroke="black" />
<text text-anchor="middle" class="axis" x="368" y="200">2.5</text>
<line x1="400" y1="0" x2="400" y2="187" stroke="black" />
<text text-anchor="end" class="axis" x="400" y="200">x</text>

<path d="M 16.00 0.00 C 16.00,0.00 65.191,84.66 80.00,103.89 C 96.19,124.91 121.953,151.91 144.00,166.22 C 160.35,176.84 188.800,187.00 208.00,187.00 C 227.20,187.00 255.647,176.84 272.00,166.22 C 294.05,151.91 319.813,124.91 336.00,103.89 C 336.00,103.89 372.142,50.03 400.00,0.00 " fill="none" stroke="black" stroke-width="3" stroke-linecap="round"/>
</svg>