<?xml version="1.0" encoding="UTF-8"?>
<svg width="400" height="200" viewBox="0 0 400 200" version="1.1" xmlns="http://www.w3.org/2000/svg">
"<style>
.axis {
font-family: "Arial, Helvetica, sans-serif";
font-size: 12;
}
</style>
<line x1="16" y1="5" x2="395" y2="5" stroke="black" />
<text fill="#000000" fill-rule="nonzero" font-family="ArialMT, Arial" text-anchor="middle" font-size="12" font-weight="normal"><tspan text-anchor="middle" x="12" y="9">y</tspan></text>
<line x1="16" y1="25.22" x2="395" y2="25.22" stroke="black" />
<text fill="#000000" fill-rule="nonzero" font-family="ArialMT, Arial" text-anchor="middle" font-size="12" font-weight="normal"><tspan text-anchor="middle" x="12" y="29.22">8</tspan></text>
<line x1="16" y1="45.44" x2="395" y2="45.44" stroke="black" />
<text fill="#000000" fill-rule="nonzero" font-family="ArialMT, Arial" text-anchor="middle" font-size="12" font-weight="normal"><tspan text-anchor="middle" x="12" y="49.44">7</tspan></text>
<line x1="16" y1="65.67" x2="395" y2="65.67" stroke="black" />
<text fill="#000000" fill-rule="nonzero" font-family="ArialMT, Arial" text-anchor="middle" font-size="12" font-weight="normal"><tspan text-anchor="middle" x="12" y="69.67">6</tspan></text>
<line x1="16" y1="85.89" x2="395" y2="85.89" stroke="black" />
<text fill="#000000" fill-rule="nonzero" font-family="ArialMT, Arial" text-anchor="middle" font-size="12" font-weight="normal"><tspan text-anchor="middle" x="12" y="89.89">5</tspan></text>
<line x1="16" y1="106.11" x2="395" y2="106.11" stroke="black" />
<text fill="#000000" fill-rule="nonzero" font-family="ArialMT, Arial" text-anchor="middle" font-size="12" font-weight="normal"><tspan text-anchor="middle" x="12" y="110.11">4</tspan></text>
<line x1="16" y1="126.33" x2="395" y2="126.33" stroke="black" />
<text fill="#000000" fill-rule="nonzero" font-family="ArialMT, Arial" text-anchor="middle" font-size="12" font-weight="normal"><tspan text-anchor="middle" x="12" y="130.33">3</tspan></text>
<line x1="16" y1="146.56" x2="395" y2="146.56" stroke="black" />
<text fill="#000000" fill-rule="nonzero" font-family="ArialMT, Arial" text-anchor="middle" font-size="12" font-weight="normal"><tspan text-anchor="middle" x="12" y="150.56">2</tspan></text>
<line x1="16" y1="166.78" x2="395" y2="166.78" stroke="black" />
<text fill="#000000" fill-rule="nonzero" font-family="ArialMT, Arial" text-anchor="middle" font-size="12" font-weight="normal"><tspan text-anchor="middle" x="12" y="170.78">1</tspan></text>
<line x1="16" y1="187" x2="395" y2="187" stroke="black" />
<text fill="#000000" fill-rule="nonzero" font-family="ArialMT, Arial" text-anchor="middle" font-size="12" font-weight="normal"><tspan text-anchor="middle" x="12" y="191">0</tspan></text>
<line x1="16" y1="5" x2="16" y2="187" stroke="black" />
<text fill="#000000" fill-rule="nonzero" font-family="ArialMT, Arial" text-anchor="middle" font-size="12" font-weight="normal"><tspan text-anchor="middle" x="16" y="200">0</tspan></text>
<line x1="70.14" y1="5" x2="70.14" y2="187" stroke="black" />
<text fill="#000000" fill-rule="nonzero" font-family="ArialMT, Arial" text-anchor="middle" font-size="12" font-weight="normal"><tspan text-anchor="middle" x="70.14" y="200">1</tspan></text>
<line x1="124.29" y1="5" x2="124.29" y2="187" stroke="black" />
<text fill="#000000" fill-rule="nonzero" font-family="ArialMT, Arial" text-anchor="middle" font-size="12" font-weight="normal"><tspan text-anchor="middle" x="124.29" y="200">2</tspan></text>
<line x1="178.43" y1="5" x2="178.43" y2="187" stroke="black" />
<text fill="#000000" fill-rule="nonzero" font-family="ArialMT, Arial" text-anchor="middle" font-size="12" font-weight="normal"><tspan text-anchor="middle" x="178.43" y="200">3</tspan></text>
<line x1="232.57" y1="5" x2="232.57" y2="187" stroke="black" />
<text fill="#000000" fill-rule="nonzero" font-family="ArialMT, Arial" text-anchor="middle" font-size="12" font-weight="normal"><tspan text-anchor="middle" x="232.57" y="200">4</tspan></text>
<line x1="286.71" y1="5" x2="286.71" y2="187" stroke="black" />
<text fill="#000000" fill-rule="nonzero" font-family="ArialMT, Arial" text-anchor="middle" font-size="12" font-weight="normal"><tspan text-anchor="middle" x="286.71" y="200">5</tspan></text>
<line x1="340.86" y1="5" x2="340.86" y2="187" stroke="black" />
<text fill="#000000" fill-rule="nonzero" font-family="ArialMT, Arial" text-anchor="middle" font-size="12" font-weight="normal"><tspan text-anchor="middle" x="340.86" y="200">6</tspan></text>
<line x1="395" y1="5" x2="395" y2="187" stroke="black" />
<text fill="#000000" fill-rule="nonzero" font-family="ArialMT, Arial" text-anchor="middle" font-size="12" font-weight="normal"><tspan text-anchor="middle" x="395" y="200">x</tspan></text>

<path d="M 70.14 5.00 C 70.14,5.00 111.588,87.14 124.29,106.11 C 137.72,126.19 159.277,152.47 178.43,166.78 C 191.76,176.74 216.329,187.00 232.57,187.00 C 248.81,187.00 273.380,176.74 286.71,166.78 C 305.87,152.47 327.419,126.19 340.86,106.11 C 340.86,106.11 371.603,53.44 395.00,5.00 " fill="none" stroke="black" stroke-width="3" stroke-linecap="round"/>
</svg>